<svg width="640" height="480" viewBox="0 0 640 480" fill="none" xmlns="http://www.w3.org/2000/svg">
  <defs>
    <linearGradient id="grad-bg" x1="0" y1="0" x2="1" y2="1">
      <stop offset="0" stop-color="#4C1D95"/>
      <stop offset="0.5" stop-color="#7C3AED"/>
      <stop offset="1" stop-color="#0F172A"/>
    </linearGradient>
    <linearGradient id="grad-card" x1="0" y1="0" x2="1" y2="1">
      <stop offset="0" stop-color="#E9D5FF" stop-opacity="0.95"/>
      <stop offset="1" stop-color="#C7D2FE" stop-opacity="0.9"/>
    </linearGradient>
  </defs>
  <rect width="640" height="480" rx="32" fill="url(#grad-bg)"/>
  <circle cx="520" cy="72" r="46" fill="#7C3AED" fill-opacity="0.3"/>
  <circle cx="96" cy="112" r="32" fill="#6366F1" fill-opacity="0.35"/>
  <circle cx="164" cy="408" r="40" fill="#22C55E" fill-opacity="0.15"/>
  <rect x="120" y="96" width="360" height="260" rx="28" fill="url(#grad-card)"/>
  <rect x="140" y="120" width="80" height="10" rx="5" fill="#6366F1"/>
  <rect x="140" y="144" width="190" height="12" rx="6" fill="#1F2937" fill-opacity="0.25"/>
  <rect x="140" y="166" width="140" height="10" rx="5" fill="#4B5563" fill-opacity="0.2"/>
  <rect x="140" y="206" width="190" height="60" rx="14" fill="#EEF2FF"/>
  <circle cx="170" cy="236" r="16" fill="#7C3AED" fill-opacity="0.9"/>
  <rect x="196" y="222" width="108" height="10" rx="5" fill="#1F2937" fill-opacity="0.4"/>
  <rect x="196" y="240" width="72" height="8" rx="4" fill="#6B7280" fill-opacity="0.4"/>
  <rect x="140" y="284" width="80" height="26" rx="13" fill="#7C3AED"/>
  <rect x="232" y="284" width="82" height="26" rx="13" fill="#0EA5E9" fill-opacity="0.85"/>
  <rect x="326" y="284" width="70" height="26" rx="13" fill="#111827" fill-opacity="0.85"/>
  <rect x="344" y="180" width="96" height="52" rx="16" fill="#111827" fill-opacity="0.93"/>
  <circle cx="366" cy="206" r="12" fill="#22C55E"/>
  <rect x="386" y="194" width="38" height="6" rx="3" fill="#F9FAFB" fill-opacity="0.9"/>
  <rect x="386" y="206" width="28" height="6" rx="3" fill="#9CA3AF"/>
  <rect x="280" y="360" width="140" height="6" rx="3" fill="#E5E7EB" fill-opacity="0.45"/>
  <rect x="280" y="374" width="90" height="6" rx="3" fill="#E5E7EB" fill-opacity="0.3"/>
</svg>
